<svg width="960" height="960" viewBox="0 0 960 960" fill="none" xmlns="http://www.w3.org/2000/svg">
<path fill-rule="evenodd" clip-rule="evenodd" d="M959.558 0H0V959.558H959.558V0ZM367.35 148.648C424.81 206.438 462.289 276.714 479.789 350.791C497.289 276.714 534.768 206.438 592.227 148.648C685.562 54.7757 811.652 13.9247 933.495 26.0952C945.595 148.64 904.978 275.456 811.643 369.328C756.894 424.393 690.875 461.213 621.054 479.79C690.875 498.367 756.894 535.187 811.643 590.252C904.978 684.124 945.595 810.94 933.495 933.485C811.652 945.655 685.562 904.804 592.227 810.932C534.768 753.142 497.289 682.866 479.789 608.789C462.289 682.866 424.81 753.142 367.35 810.932C274.016 904.804 147.926 945.655 26.0832 933.485C13.9824 810.94 54.5994 684.124 147.934 590.252C202.683 535.187 268.703 498.367 338.524 479.79C268.703 461.213 202.683 424.393 147.934 369.328C54.5994 275.456 13.9824 148.64 26.0832 26.0952C147.926 13.9247 274.016 54.7757 367.35 148.648Z" fill="#FFEFB5"/>
</svg>
