<svg width="960" height="960" viewBox="0 0 960 960" fill="none" xmlns="http://www.w3.org/2000/svg">
<path fill-rule="evenodd" clip-rule="evenodd" d="M479.918 351.44C497.499 277.442 535.154 207.241 592.882 149.513C686.653 55.7423 813.331 14.9356 935.743 27.0929C947.9 149.505 907.093 276.183 813.322 369.954C721.964 461.312 599.37 502.396 479.918 493.207C360.465 502.396 237.871 461.312 146.513 369.954C52.7423 276.183 11.9356 149.505 24.0929 27.0929C146.505 14.9356 273.183 55.7423 366.954 149.513C424.682 207.241 462.336 277.442 479.918 351.44ZM346.913 169.553C428.375 251.014 467.021 359.055 462.817 465.817C356.055 470.021 248.014 431.375 166.553 349.913C85.0916 268.452 46.4456 160.411 50.6493 53.6493C157.412 49.4456 265.452 88.0916 346.913 169.553ZM612.922 169.553C531.461 251.014 492.815 359.055 497.018 465.817C603.78 470.021 711.821 431.375 793.282 349.913C874.744 268.452 913.39 160.411 909.186 53.6493C802.424 49.4456 694.383 88.0916 612.922 169.553Z" fill="#FFEFB5"/>
<path fill-rule="evenodd" clip-rule="evenodd" d="M479.918 609.149C497.499 683.148 535.154 753.349 592.882 811.077C686.653 904.848 813.331 945.654 935.743 933.497C947.9 811.085 907.093 684.407 813.322 590.636C721.964 499.278 599.37 458.194 479.918 467.383C360.465 458.194 237.871 499.278 146.513 590.636C52.7423 684.407 11.9356 811.085 24.0929 933.497C146.505 945.654 273.183 904.848 366.954 811.077C424.682 753.349 462.336 683.148 479.918 609.149ZM346.913 791.037C428.375 709.575 467.021 601.535 462.817 494.773C356.055 490.569 248.014 529.215 166.553 610.676C85.0916 692.138 46.4456 800.178 50.6493 906.941C157.412 911.144 265.452 872.498 346.913 791.037ZM612.922 791.037C531.461 709.575 492.815 601.535 497.018 494.773C603.78 490.569 711.821 529.215 793.282 610.676C874.744 692.138 913.39 800.178 909.186 906.941C802.424 911.144 694.383 872.498 612.922 791.037Z" fill="#FFEFB5"/>
</svg>
