<svg width="138" height="138" viewBox="0 0 138 138" fill="none" xmlns="http://www.w3.org/2000/svg">
<path d="M50.8831 19.81C64.3571 33.2841 70.3953 51.3769 68.9956 68.9956C51.3769 70.3953 33.2841 64.3571 19.81 50.8831C6.33598 37.409 0.29777 19.3162 1.69752 1.69752C19.3162 0.29777 37.409 6.33598 50.8831 19.81Z" fill="#4FF1FF" stroke="black" stroke-width="3"/>
<path d="M118.102 50.8831C104.628 64.3571 86.535 70.3953 68.9163 68.9956C67.5165 51.3769 73.5547 33.2841 87.0288 19.81C100.503 6.33598 118.596 0.29777 136.214 1.69752C137.614 19.3162 131.576 37.409 118.102 50.8831Z" fill="#FFA217" stroke="black" stroke-width="3"/>
<path d="M50.8831 117.307C64.3571 103.833 70.3953 85.7403 68.9956 68.1216C51.3769 66.7219 33.2841 72.7601 19.81 86.2341C6.33598 99.7082 0.29777 117.801 1.69752 135.42C19.3162 136.819 37.409 130.781 50.8831 117.307Z" fill="#FFC700" stroke="black" stroke-width="3"/>
<path d="M118.102 86.2341C104.628 72.7601 86.535 66.7219 68.9163 68.1216C67.5165 85.7403 73.5547 103.833 87.0288 117.307C100.503 130.781 118.596 136.819 136.214 135.42C137.614 117.801 131.576 99.7082 118.102 86.2341Z" fill="#FF4141" stroke="black" stroke-width="3"/>
</svg>
