<svg width="141" height="46" viewBox="0 0 141 46" fill="none" xmlns="http://www.w3.org/2000/svg">
<path d="M137.748 13.059C138.609 13.7512 139.867 13.6145 140.56 12.7537C141.252 11.8929 141.115 10.634 140.254 9.94178L137.748 13.059ZM0.00201738 24.4994L10.5892 45.0237L23.0701 25.5928L0.00201738 24.4994ZM140.254 9.94178C128.934 0.839065 117.861 -1.21618 107.007 0.670897C96.3058 2.53157 85.9212 8.21149 75.847 14.2711C65.6528 20.4029 55.7949 26.9066 45.7638 30.9116C35.8148 34.8838 25.9756 36.2721 15.8744 32.3659L14.4317 36.0967C25.7986 40.4923 36.7409 38.821 47.247 34.6264C57.6709 30.4646 67.9414 23.6942 77.9088 17.6988C87.9963 11.6312 97.8065 6.33065 107.693 4.61178C117.427 2.91931 127.334 4.6854 137.748 13.059L140.254 9.94178Z" fill="black"/>
</svg>
