<svg width="159" height="35" viewBox="0 0 159 35" fill="none" xmlns="http://www.w3.org/2000/svg">
<path d="M158.123 3.16647C158.767 2.26932 158.562 1.01968 157.665 0.375327C156.768 -0.269029 155.518 -0.0640977 154.874 0.833053L158.123 3.16647ZM0.0266914 18.3475L21.8222 25.9822L17.5363 3.28937L0.0266914 18.3475ZM154.874 0.833053C143.495 16.6767 133.296 24.761 123.566 28.3029C113.862 31.8352 104.318 30.9627 93.9662 28.2377C88.7798 26.8725 83.4473 25.0586 77.8067 23.1269C72.1871 21.2025 66.276 19.1662 60.03 17.4029C47.5143 13.8697 33.5801 11.4089 17.5049 13.0188L17.9035 16.9988C33.3171 15.4553 46.7229 17.8026 58.9433 21.2525C65.0653 22.9808 70.8712 24.9799 76.5108 26.9112C82.1293 28.8353 87.5981 30.6977 92.948 32.106C103.669 34.928 114.139 35.9911 124.934 32.0616C135.703 28.1415 146.488 19.3663 158.123 3.16647L154.874 0.833053Z" fill="black"/>
</svg>
