<svg width="159" height="78" viewBox="0 0 159 78" fill="none" xmlns="http://www.w3.org/2000/svg">
<path d="M0.101983 33.8532C-0.246233 34.9015 0.321254 36.0335 1.3695 36.3818C2.41775 36.73 3.5498 36.1625 3.89802 35.1142L0.101983 33.8532ZM158.5 64L142.545 47.3034L136.063 69.4689L158.5 64ZM3.89802 35.1142C5.31932 30.8356 10.0073 25.0953 16.7269 19.6057C23.3742 14.1751 31.7127 9.2334 40.0352 6.42369C48.4011 3.59928 56.4465 3.02617 62.7476 5.86867C68.9125 8.64973 73.9198 14.9433 75.7769 27.0564L79.7307 26.4502C77.736 13.4399 72.1506 5.72228 64.3925 2.2225C56.7706 -1.21583 47.5628 -0.339493 38.7557 2.63384C29.9051 5.62187 21.1509 10.8262 14.1962 16.508C7.31382 22.1306 1.89059 28.4689 0.101983 33.8532L3.89802 35.1142ZM75.7769 27.0564C77.5718 38.7631 72.306 48.8582 64.0185 56.7273C55.7128 64.6137 44.561 70.0565 35.2327 72.3186C30.5571 73.4525 26.4975 73.7481 23.5649 73.2584C20.5872 72.7612 19.3478 71.5991 19.0286 70.3018C18.6498 68.7624 19.2187 65.9717 22.4263 61.5547C25.561 57.238 30.9287 51.7679 39.2102 45.056L36.6917 41.9484C28.2816 48.7645 22.6152 54.4872 19.1897 59.2043C15.837 63.8211 14.3195 67.9051 15.1445 71.2575C16.0289 74.8521 19.2834 76.5989 22.9061 77.2038C26.5739 77.8163 31.2212 77.4073 36.1753 76.206C46.1065 73.7977 57.9055 68.0477 66.7728 59.628C75.6584 51.191 81.7878 39.8669 79.7307 26.4502L75.7769 27.0564ZM39.2102 45.056C53.0295 33.8558 64.4499 28.3727 74.1647 26.5426C83.8269 24.7224 91.9676 26.4842 99.3338 30.0974C106.765 33.7423 113.394 39.2609 120.011 44.9991C126.552 50.6713 133.13 56.6067 140.23 60.6827L142.222 57.2137C135.54 53.3778 129.305 47.7634 122.632 41.9771C116.035 36.2567 109.05 30.408 101.095 26.5061C93.0759 22.5726 84.0599 20.6082 73.4242 22.6117C62.8411 24.6054 50.8225 30.4958 36.6917 41.9484L39.2102 45.056Z" fill="black"/>
</svg>
